<svg width="24" height="24" viewBox="0 0 24 24" fill="none" xmlns="http://www.w3.org/2000/svg">
<path fill-rule="evenodd" clip-rule="evenodd" d="M23.6727 10.3542L12.7636 0.293402C12.3394 -0.0978007 11.6606 -0.0978007 11.2364 0.293402L0.327293 10.3542C0.117959 10.5472 0 10.8114 0 11.0873V23.4868L0.008771 23.5791C0.0549654 23.8185 0.27768 24 0.545455 24L9.27273 23.9997C9.57397 23.9997 9.81816 23.7699 9.81818 23.4864V17.8413L9.82374 17.6603C9.92328 16.0438 10.2571 14.7619 12 14.7619L12.1923 14.7671C13.783 14.8538 14.1337 16.0095 14.1769 17.4821L14.1818 17.8413V23.4864C14.1818 23.7699 14.426 23.9997 14.7273 23.9997L23.4545 24L23.5526 23.9918C23.8071 23.9483 24 23.7387 24 23.4868V11.0873C24 10.8114 23.882 10.5472 23.6727 10.3542ZM1.63637 11.3029L12 1.74512L22.3636 11.3029V22.4603L15.8182 22.46V17.8413L15.8131 17.4622C15.7401 14.9678 14.7735 13.3656 12.287 13.23L12.0473 13.2228C9.32885 13.2222 8.3584 14.8384 8.19012 17.5713L8.1825 17.7968L8.18194 22.46L1.63637 22.4603V11.3029Z" fill="white"/>
</svg>
