<svg width="24" height="24" viewBox="0 0 24 24" fill="none" xmlns="http://www.w3.org/2000/svg">
<path fill-rule="evenodd" clip-rule="evenodd" d="M12.0433 3.09688L11.3788 2.20389C8.70487 -0.870743 4.44058 -0.661223 1.76662 2.41341C-0.907338 5.48804 -0.392728 11.4323 2.28123 14.5069C3.36648 15.7548 4.99171 17.4826 7.15691 19.6903L8.97847 21.5329L11.0244 23.5749C11.5877 24.1339 12.42 24.1425 12.992 23.5952L14.6494 21.9973C17.5518 19.1768 19.7056 16.9553 21.1108 15.3326L21.4755 14.9049L21.8031 14.5069C24.2934 11.4191 24.9333 5.41654 22.3216 2.41341L22.1324 2.20389C19.4469 -0.65956 15.3973 -0.79924 12.7855 2.20389L12.0433 3.09688ZM2.84257 3.65048C4.95698 1.21924 8.22808 1.10525 10.2636 3.39624L11.981 5.70411L13.8856 3.41263C15.8391 1.16696 18.9526 1.19942 21.0978 3.4867L21.2661 3.67354C23.1117 5.79613 22.7977 10.7005 20.6874 13.3172L20.3704 13.7023L20.0187 14.1146C18.8538 15.4588 17.1274 17.2598 14.8511 19.5027L13.6672 20.661L12.0186 22.2504L9.97592 20.2116L8.51396 18.7349C6.45394 16.6414 4.86477 14.9669 3.75209 13.7181L3.35718 13.2697C1.1544 10.7369 0.87889 5.9084 2.84257 3.65048Z" fill="white"/>
</svg>
