<svg width="24" height="24" viewBox="0 0 24 24" fill="none" xmlns="http://www.w3.org/2000/svg">
<path fill-rule="evenodd" clip-rule="evenodd" d="M17.1064 0C20.9136 0 24 3.08638 24 6.89362V17.1064C24 20.9136 20.9136 24 17.1064 24H6.89362C3.08638 24 0 20.9136 0 17.1064V6.89362C0 3.08638 3.08638 0 6.89362 0H17.1064ZM17.1064 1.53191H6.89362C3.93244 1.53191 1.53192 3.93243 1.53192 6.89362V17.1064C1.53192 20.0676 3.93244 22.4681 6.89362 22.4681H17.1064C20.0676 22.4681 22.4681 20.0676 22.4681 17.1064V6.89362C22.4681 3.93243 20.0676 1.53191 17.1064 1.53191ZM12.759 5.7684C12.7082 5.39454 12.3878 5.10638 12 5.10638L11.8961 5.11338L11.7964 5.13374C11.4722 5.22292 11.234 5.51982 11.234 5.87234V11.233L5.87234 11.234L5.76841 11.241C5.39454 11.2918 5.10638 11.6122 5.10638 12L5.11338 12.1039C5.1641 12.4778 5.48457 12.766 5.87234 12.766L11.234 12.7649V18.1277L11.241 18.2316C11.2918 18.6055 11.6122 18.8936 12 18.8936L12.1039 18.8866C12.4778 18.8359 12.766 18.5154 12.766 18.1277V12.766H18.1277L18.2316 12.759C18.6055 12.7082 18.8936 12.3878 18.8936 12L18.8866 11.8961C18.8359 11.5222 18.5154 11.234 18.1277 11.234H12.766V5.87234L12.759 5.7684Z" fill="white"/>
</svg>
