<svg width="22" height="22" viewBox="0 0 22 22" fill="none" xmlns="http://www.w3.org/2000/svg">
<path fill-rule="evenodd" clip-rule="evenodd" d="M10.9081 7.04255C11.004 6.49865 10.6408 5.98 10.0969 5.88409C9.553 5.78819 9.03435 6.15136 8.93844 6.69525L8.72425 7.91H7.3021C6.74982 7.91 6.3021 8.35772 6.3021 8.91C6.3021 9.46229 6.74982 9.91 7.3021 9.91H8.3716L8.00307 12H6.3021C5.74982 12 5.3021 12.4477 5.3021 13C5.3021 13.5523 5.74982 14 6.3021 14H7.65042L7.48159 14.9575C7.38569 15.5013 7.74886 16.02 8.29275 16.1159C8.83665 16.2118 9.3553 15.8486 9.45121 15.3047L9.68127 14H11.1504L10.9816 14.9575C10.8857 15.5013 11.2489 16.02 11.7928 16.1159C12.3366 16.2118 12.8553 15.8486 12.9512 15.3047L13.1813 14H14.6917C15.244 14 15.6917 13.5523 15.6917 13C15.6917 12.4477 15.244 12 14.6917 12H13.5339L13.9024 9.91H15.6917C16.244 9.91 16.6917 9.46229 16.6917 8.91C16.6917 8.35772 16.244 7.91 15.6917 7.91H14.2551L14.4081 7.04255C14.504 6.49865 14.1408 5.98 13.5969 5.88409C13.053 5.78819 12.5343 6.15136 12.4384 6.69525L12.2242 7.91H10.7551L10.9081 7.04255ZM10.0339 12L10.4024 9.91H11.8716L11.5031 12H10.0339Z" fill="#FFFBFB"/>
<path fill-rule="evenodd" clip-rule="evenodd" d="M11 0C4.92487 0 0 4.92487 0 11C0 12.4896 0.296635 13.9124 0.835006 15.2107C1.07746 15.7954 1.3688 16.3545 1.7038 16.8829C1.69028 16.9936 1.66499 17.1496 1.62353 17.3583C1.51644 17.8973 1.32238 18.686 1.03538 19.7364C0.940754 20.0827 1.03905 20.4532 1.29291 20.7071C1.54678 20.9609 1.91725 21.0592 2.26358 20.9646C3.31401 20.6776 4.10271 20.4836 4.64173 20.3765C4.85036 20.335 5.00634 20.3097 5.11705 20.2962C5.64541 20.6312 6.2045 20.9225 6.78926 21.165C8.08754 21.7034 9.51039 22 11 22C17.0751 22 22 17.0751 22 11C22 4.92487 17.0751 0 11 0ZM2.68246 14.4447C2.90948 14.9921 3.18914 15.5125 3.51522 15.9996C3.67891 16.2441 3.70288 16.4982 3.71019 16.5889C3.72048 16.7163 3.71547 16.8432 3.70666 16.9532C3.68879 17.1763 3.64504 17.4467 3.58519 17.748C3.53602 17.9955 3.47234 18.2816 3.39454 18.6055C3.7184 18.5277 4.00449 18.464 4.252 18.4148C4.55327 18.355 4.8237 18.3112 5.04684 18.2933C5.15684 18.2845 5.28375 18.2795 5.41117 18.2898C5.50184 18.2971 5.75594 18.3211 6.00046 18.4849C6.48756 18.8109 7.00791 19.0906 7.55527 19.3175C8.61498 19.7569 9.77786 20 11 20C15.9705 20 20 15.9706 20 11C20 6.02943 15.9706 2 11 2C6.02943 2 2 6.02943 2 11C2 12.2221 2.24303 13.385 2.68246 14.4447Z" fill="#FFFBFB"/>
</svg>
